name ./resultDataOpenSim/trcMotMarkerGrf/sub10/grf-03-08.mot
datacolumns 19
datarows 27
range 1.48800000 1.59200000
endheader

                time	     ground_force_vx	     ground_force_vy	     ground_force_vz	     ground_force_px	     ground_force_py	     ground_force_pz	   l_ground_force_vx	   l_ground_force_vy	   l_ground_force_vz	   l_ground_force_px	   l_ground_force_py	   l_ground_force_pz	     ground_torque_x	     ground_torque_y	     ground_torque_z	   l_ground_torque_x	   l_ground_torque_y	   l_ground_torque_z	
          1.48800000	        -32.64034319	        433.06384584	        -26.16529571	          0.86550415	          0.00000000	          0.03288676	          0.00000000	          0.00000000	          0.00000000	          0.00000000	          0.00000000	          0.00000000	          0.00000000	          0.62116159	          0.00000000	          0.00000000	          0.00000000	          0.00000000	
          1.49200000	        -31.41496561	        433.66155858	        -27.05577439	          0.86750695	          0.00000000	          0.03310057	          0.00000000	          0.00000000	          0.00000000	          0.00000000	          0.00000000	          0.00000000	          0.00000000	          0.74681339	          0.00000000	          0.00000000	          0.00000000	          0.00000000	
          1.49600000	        -29.55816315	        434.78619077	        -27.21538444	          0.86931784	          0.00000000	          0.03326225	          0.00000000	          0.00000000	          0.00000000	          0.00000000	          0.00000000	          0.00000000	          0.00000000	          0.83001551	          0.00000000	          0.00000000	          0.00000000	          0.00000000	
          1.50000000	        -27.35263729	        436.40080933	        -26.60690950	          0.87099297	          0.00000000	          0.03336056	          0.00000000	          0.00000000	          0.00000000	          0.00000000	          0.00000000	          0.00000000	          0.00000000	          0.87185405	          0.00000000	          0.00000000	          0.00000000	          0.00000000	
          1.50400000	        -25.18390353	        438.45237908	        -25.34791467	          0.87261980	          0.00000000	          0.03338636	          0.00000000	          0.00000000	          0.00000000	          0.00000000	          0.00000000	          0.00000000	          0.00000000	          0.88265472	          0.00000000	          0.00000000	          0.00000000	          0.00000000	
          1.50800000	        -23.42553941	        440.86639178	        -23.68306838	          0.87425946	          0.00000000	          0.03334580	          0.00000000	          0.00000000	          0.00000000	          0.00000000	          0.00000000	          0.00000000	          0.00000000	          0.87832156	          0.00000000	          0.00000000	          0.00000000	          0.00000000	
          1.51200000	        -22.33256188	        443.57331134	        -21.93427348	          0.87592649	          0.00000000	          0.03325265	          0.00000000	          0.00000000	          0.00000000	          0.00000000	          0.00000000	          0.00000000	          0.00000000	          0.87534500	          0.00000000	          0.00000000	          0.00000000	          0.00000000	
          1.51600000	        -21.96774718	        446.53146565	        -20.43610776	          0.87761922	          0.00000000	          0.03311987	          0.00000000	          0.00000000	          0.00000000	          0.00000000	          0.00000000	          0.00000000	          0.00000000	          0.88663603	          0.00000000	          0.00000000	          0.00000000	          0.00000000	
          1.52000000	        -22.18395950	        449.72946031	        -19.46823055	          0.87931421	          0.00000000	          0.03296204	          0.00000000	          0.00000000	          0.00000000	          0.00000000	          0.00000000	          0.00000000	          0.00000000	          0.91953141	          0.00000000	          0.00000000	          0.00000000	          0.00000000	
          1.52400000	        -22.66878402	        453.17665781	        -19.19833348	          0.88096826	          0.00000000	          0.03279496	          0.00000000	          0.00000000	          0.00000000	          0.00000000	          0.00000000	          0.00000000	          0.00000000	          0.97587636	          0.00000000	          0.00000000	          0.00000000	          0.00000000	
          1.52800000	        -23.03341587	        456.88651891	        -19.64887492	          0.88252135	          0.00000000	          0.03263347	          0.00000000	          0.00000000	          0.00000000	          0.00000000	          0.00000000	          0.00000000	          0.00000000	          1.05314277	          0.00000000	          0.00000000	          0.00000000	          0.00000000	
          1.53200000	        -22.91681199	        460.86486611	        -20.70028378	          0.88390520	          0.00000000	          0.03248474	          0.00000000	          0.00000000	          0.00000000	          0.00000000	          0.00000000	          0.00000000	          0.00000000	          1.14561102	          0.00000000	          0.00000000	          0.00000000	          0.00000000	
          1.53600000	        -22.07815525	        465.11266199	        -22.12904081	          0.88508012	          0.00000000	          0.03234480	          0.00000000	          0.00000000	          0.00000000	          0.00000000	          0.00000000	          0.00000000	          0.00000000	          1.24538623	          0.00000000	          0.00000000	          0.00000000	          0.00000000	
          1.54000000	        -20.45436651	        469.63118191	        -23.66306740	          0.88604078	          0.00000000	          0.03220332	          0.00000000	          0.00000000	          0.00000000	          0.00000000	          0.00000000	          0.00000000	          0.00000000	          1.34363000	          0.00000000	          0.00000000	          0.00000000	          0.00000000	
          1.54400000	        -18.16921613	        474.41446944	        -25.03742455	          0.88681239	          0.00000000	          0.03205186	          0.00000000	          0.00000000	          0.00000000	          0.00000000	          0.00000000	          0.00000000	          0.00000000	          1.43232097	          0.00000000	          0.00000000	          0.00000000	          0.00000000	
          1.54800000	        -15.49450277	        479.43860812	        -26.04137929	          0.88745122	          0.00000000	          0.03188853	          0.00000000	          0.00000000	          0.00000000	          0.00000000	          0.00000000	          0.00000000	          0.00000000	          1.50622715	          0.00000000	          0.00000000	          0.00000000	          0.00000000	
          1.55200000	        -12.77518542	        484.66582185	        -26.55174539	          0.88801724	          0.00000000	          0.03171388	          0.00000000	          0.00000000	          0.00000000	          0.00000000	          0.00000000	          0.00000000	          0.00000000	          1.56420977	          0.00000000	          0.00000000	          0.00000000	          0.00000000	
          1.55600000	        -10.33821749	        490.05887916	        -26.54957279	          0.88855766	          0.00000000	          0.03152518	          0.00000000	          0.00000000	          0.00000000	          0.00000000	          0.00000000	          0.00000000	          0.00000000	          1.60909016	          0.00000000	          0.00000000	          0.00000000	          0.00000000	
          1.56000000	         -8.40826600	        495.58792961	        -26.11938850	          0.88910972	          0.00000000	          0.03131920	          0.00000000	          0.00000000	          0.00000000	          0.00000000	          0.00000000	          0.00000000	          0.00000000	          1.64610268	          0.00000000	          0.00000000	          0.00000000	          0.00000000	
          1.56400000	         -7.05247001	        501.22406482	        -25.42986523	          0.88969418	          0.00000000	          0.03109720	          0.00000000	          0.00000000	          0.00000000	          0.00000000	          0.00000000	          0.00000000	          0.00000000	          1.68080890	          0.00000000	          0.00000000	          0.00000000	          0.00000000	
          1.56800000	         -6.16874626	        506.92903407	        -24.69853155	          0.89031363	          0.00000000	          0.03086625	          0.00000000	          0.00000000	          0.00000000	          0.00000000	          0.00000000	          0.00000000	          0.00000000	          1.71759093	          0.00000000	          0.00000000	          0.00000000	          0.00000000	
          1.57200000	         -5.52088874	        512.64926364	        -24.14931100	          0.89095500	          0.00000000	          0.03063811	          0.00000000	          0.00000000	          0.00000000	          0.00000000	          0.00000000	          0.00000000	          0.00000000	          1.75930226	          0.00000000	          0.00000000	          0.00000000	          0.00000000	
          1.57600000	         -4.81080870	        518.31959494	        -23.96971428	          0.89158440	          0.00000000	          0.03042405	          0.00000000	          0.00000000	          0.00000000	          0.00000000	          0.00000000	          0.00000000	          0.00000000	          1.80777094	          0.00000000	          0.00000000	          0.00000000	          0.00000000	
          1.58000000	         -3.76548372	        523.88498520	        -24.27310443	          0.89216879	          0.00000000	          0.03023336	          0.00000000	          0.00000000	          0.00000000	          0.00000000	          0.00000000	          0.00000000	          0.00000000	          1.86431906	          0.00000000	          0.00000000	          0.00000000	          0.00000000	
          1.58400000	         -2.21421830	        529.33074654	        -25.07725798	          0.89268896	          0.00000000	          0.03006983	          0.00000000	          0.00000000	          0.00000000	          0.00000000	          0.00000000	          0.00000000	          0.00000000	          1.92966949	          0.00000000	          0.00000000	          0.00000000	          0.00000000	
          1.58800000	         -0.13577698	        534.69427310	        -26.30771995	          0.89314219	          0.00000000	          0.02993052	          0.00000000	          0.00000000	          0.00000000	          0.00000000	          0.00000000	          0.00000000	          0.00000000	          2.00332827	          0.00000000	          0.00000000	          0.00000000	          0.00000000	
          1.59200000	          2.33853155	        540.04955397	        -27.82048419	          0.89355433	          0.00000000	          0.02980856	          0.00000000	          0.00000000	          0.00000000	          0.00000000	          0.00000000	          0.00000000	          0.00000000	          2.08311471	          0.00000000	          0.00000000	          0.00000000	          0.00000000	
